<?xml version="1.0" encoding="utf-8"?><svg viewBox="0 0 256 256" xmlns="http://www.w3.org/2000/svg" xmlns:xlink="http://www.w3.org/1999/xlink"><style>:root>svg{display:none}:root>svg:target{display:block}</style><svg viewBox="0 0 256 256" id="facebook-logo-90" xmlns="http://www.w3.org/2000/svg"><path d="M158.809 7.566c11.839 0 22.566.65 28.974 1.21v29.433l-17.992.009c-24.659 0-27.82 14.659-27.82 27.428v34.226h43.734l-4.35 33.74H141.97v114.822h-35.189V133.613H68.217V99.872h38.564V61.195c0-33.581 19.449-53.63 52.028-53.63m0-5.601c-34.21 0-57.63 20.883-57.63 59.231V94.27H62.616v44.942h38.565v114.824h46.392V139.214h38.71l5.795-44.941h-44.505V65.649c0-12.982 3.605-21.827 22.219-21.827l23.594-.011V3.729c-4.106-.544-18.189-1.765-34.576-1.765z" stroke-width="0" stroke-miterlimit="10" style="stroke-width:1;stroke-dasharray:none;stroke-linecap:butt;stroke-linejoin:miter;stroke-miterlimit:10;fill-rule:nonzero;opacity:1"/></svg><svg viewBox="0 0 256 256" id="gift-912" xmlns="http://www.w3.org/2000/svg"><path d="M246.115 51.527H189.85a9.91 9.91 0 00.174-1.717V22.144c0-3.658-1.9-6.921-5.084-8.725-3.184-1.806-6.96-1.761-10.097.12l-46.185 27.664c-.235.14-.437.314-.658.47-.218-.156-.42-.327-.655-.467L81.157 13.54c-3.14-1.877-6.913-1.924-10.094-.12-3.185 1.803-5.084 5.066-5.084 8.724v27.663c0 .588.076 1.157.174 1.717H9.885c-4.367.003-7.921 3.554-7.921 7.92V87.51c0 4.366 3.554 7.92 7.92 7.92h7.04v137.116c0 6.263 5.094 11.36 11.356 11.36h199.442c6.263 0 11.358-5.097 11.358-11.36V95.43h7.038c4.37 0 7.92-3.554 7.92-7.92V59.445c-.002-4.367-3.553-7.918-7.923-7.918zm-113.188-3.193l46.185-27.663c.313-.188.61-.255.876-.255.365 0 .667.126.855.232.325.185.87.625.87 1.496v27.663c0 .947-.77 1.717-1.716 1.717h-46.185c-1.079 0-1.476-.7-1.625-1.176.023-.398.048-.798.025-1.19.112-.289.311-.583.715-.824zM156.7 87.12H99.297V59.837H156.703V87.12zM74.286 49.807V22.144c0-.871.546-1.311.871-1.496.19-.106.49-.232.855-.232.263 0 .56.067.873.252l46.188 27.666c.404.244.6.535.715.83-.023.388.002.786.025 1.181-.149.476-.544 1.182-1.625 1.182H76.006c-.947 0-1.72-.773-1.72-1.72zM10.274 87.12V59.837h80.713V87.12H10.274zM28.28 235.593a3.052 3.052 0 01-3.047-3.048V95.43h83.492v140.164H28.28zm88.755 0V95.429h21.93v140.164h-21.93zm113.732-3.048a3.05 3.05 0 01-3.047 3.048h-80.445V95.429h83.492v137.116zM245.726 87.12H165.013V59.837h80.716V87.12z" stroke-width="0" stroke-miterlimit="10" style="stroke-width:1;stroke-dasharray:none;stroke-linecap:butt;stroke-linejoin:miter;stroke-miterlimit:10;fill-rule:nonzero;opacity:1"/></svg><svg viewBox="0 0 32 32" id="htmlacademy" xmlns="http://www.w3.org/2000/svg"><path d="M16 0L3.365 1.323v23.161L16 32l12.635-7.516V1.323L16.13.016zm10.979 23.542L16 30.078 5.021 23.542v-9.49l10.932 6.505.016 1.182-7.5-4.469-.01 1.151 7.531 4.526.021 1.208-7.531-4.479-.01 1.146 7.531 4.526 7.604-4.552v-1.151l-.01.005v-3.74l3.385-2.021zm-.005-10.881l-4.391 2.589-6.615-3.938-.01 1.146 5.651 3.359-.047.031-.125.073-.802.474-4.667-2.776-.01 1.141 3.682 2.193-.87.583-.021.01-2.781-1.641-.01 1.146 1.823 1.078-1.859 1.115-10.88-6.469 10.896-6.547zm.005-1.151L15.937 5 5.02 11.5V2.812l10.979-1.151 10.984 1.151v8.693z"/></svg><svg viewBox="0 0 256 256" id="instagram-93" xmlns="http://www.w3.org/2000/svg"><g transform="translate(1.964 1.964) scale(2.8008)" stroke-width="0" stroke-miterlimit="10" style="stroke-width:0;stroke-dasharray:none;stroke-linecap:butt;stroke-linejoin:miter;stroke-miterlimit:10;fill-rule:nonzero;opacity:1"><path d="M63.429 2C76.977 2 88 13.023 88 26.571v36.858C88 76.977 76.977 88 63.429 88H26.571C13.023 88 2 76.977 2 63.429V26.571C2 13.023 13.023 2 26.571 2h36.858m0-2H26.571C11.896 0 0 11.896 0 26.571v36.858C0 78.104 11.896 90 26.571 90h36.858C78.104 90 90 78.104 90 63.429V26.571C90 11.896 78.104 0 63.429 0z"/><path d="M45 25.542c10.729 0 19.458 8.729 19.458 19.458S55.729 64.458 45 64.458 25.542 55.729 25.542 45 34.271 25.542 45 25.542m0-2c-11.851 0-21.458 9.607-21.458 21.458S33.149 66.458 45 66.458 66.458 56.851 66.458 45 56.851 23.542 45 23.542z"/><circle cx="69.043" cy="20.983" r="4.683"/><path d="M69.047 18.296c1.479 0 2.683 1.203 2.683 2.683s-1.203 2.683-2.683 2.683-2.683-1.203-2.683-2.683 1.204-2.683 2.683-2.683m0-2a4.683 4.683 0 100 9.367 4.683 4.683 0 000-9.367z"/></g></svg><svg viewBox="0 0 256 256" id="vk-102" xmlns="http://www.w3.org/2000/svg"><path d="M241.284 203.989h-26.963c-8.47 0-12.85-4.871-20.802-13.716-3.282-3.652-7.369-8.198-12.76-13.59-17.22-16.603-22.98-16.603-24.874-16.603-3.518 0-4.252 0-4.252 6.442v24.18c0 9.81-5.775 13.287-22.062 13.287-30.898 0-62.5-18.892-84.542-50.538C9.64 103.835 1.97 68.519 1.97 62.439c0-4.756 2.09-10.428 12.044-10.428h26.966c8.725 0 12.002 4.535 14.713 12.369 14.144 41.197 35.648 70.107 41.917 70.107 1.131 0 2.2 0 2.2-7.487V87.293c-.565-10.245-4.06-14.575-6.87-18.051-1.977-2.448-3.845-4.759-3.845-8.232 0-4.425 3.616-8.999 9.663-8.999h42.373c9.416 0 10.506 7.255 10.506 12.713v53.423c0 3.663 1.193 4.828 1.487 4.92 2.022-.008 4.145-1.125 10.492-7.475 18.763-20.975 32.391-53.884 32.528-54.215 2.67-6.226 7.481-9.363 14.321-9.363h26.966c4.705 0 8.05 1.286 9.94 3.826 1.784 2.398 2.095 5.624.927 9.59-3.621 16.175-35.36 61.004-36.71 62.909-2.493 3.997-3.028 4.856-.073 8.654 1.336 1.866 4.38 4.849 7.607 8.008 3.571 3.498 7.621 7.467 10.893 11.332 14.054 15.808 21.025 25.557 23.274 32.55 1.619 5.546.289 8.927-1.115 10.792-1.478 1.966-4.568 4.314-10.889 4.314zm-85.396-49.507c4.612 0 12.06 2.07 28.797 18.208 5.532 5.531 9.674 10.138 13.002 13.838 8.1 9.01 10.931 11.859 16.634 11.859h26.963c3.126 0 5.403-.74 6.405-2.075 1.149-1.533.765-3.997.241-5.79-2.5-7.775-13.15-20.4-22.148-30.523-3.146-3.714-7.095-7.584-10.58-10.999-3.556-3.481-6.623-6.486-8.177-8.662-4.927-6.33-3.328-9.935-.096-15.108.418-.597 32.655-46.126 35.923-61.102l.054-.208c.459-1.529.826-3.593-.026-4.738-.756-1.012-2.686-1.569-5.444-1.569H210.47c-4.577 0-7.4 1.829-9.16 5.93-.548 1.341-14.104 34.077-33.625 55.898-6.4 6.41-9.994 9.22-14.654 9.22-3.37 0-6.994-3.291-6.994-10.511V64.724c0-6.632-1.851-7.11-4.904-7.11H98.76c-2.801 0-4.062 1.985-4.062 3.396 0 1.429.844 2.538 2.6 4.711 2.963 3.67 7.441 9.212 8.11 21.418l.004 39.858c0 6.624-.603 13.088-7.803 13.088-12.506 0-35.243-39.003-47.214-73.88-2.391-6.903-4.24-8.592-9.416-8.592H14.016c-6.442 0-6.442 2.678-6.442 4.826 0 4.747 7.307 39.099 42.04 87.785 21.012 30.168 50.896 48.163 79.963 48.163 16.46 0 16.46-3.392 16.46-7.685v-24.18c-.003-7.626 1.61-12.04 9.85-12.04z" stroke-width="0" stroke-miterlimit="10" style="stroke-width:1;stroke-dasharray:none;stroke-linecap:butt;stroke-linejoin:miter;stroke-miterlimit:10;fill-rule:nonzero;opacity:1"/></svg></svg>